HIERARCHY
ROOT hip
{
	OFFSET 0.000000 0.000000 0.000000 
	CHANNELS 6 Xposition Yposition Zposition Xrotation Zrotation Yrotation
	JOINT abdomen
	{
		OFFSET 0.000000 3.402643 0.000000 
		CHANNELS 3 Xrotation Zrotation Yrotation
		JOINT chest
		{
			OFFSET 0.000000 8.438565 -0.680529 
			CHANNELS 3 Xrotation Zrotation Yrotation
			JOINT neck
			{
				OFFSET 0.000000 10.207942 -0.272212 
				CHANNELS 3 Xrotation Zrotation Yrotation
				JOINT head
				{
					OFFSET 0.000000 3.130431 0.000000 
					CHANNELS 3 Xrotation Zrotation Yrotation
					End Site
					{
						OFFSET 0.000000 3.130435 0.000000 
					}
				}
			}
			JOINT lCollar
			{
				OFFSET 3.470700 6.669187 -0.816635 
				CHANNELS 3 Yrotation Zrotation Xrotation
				JOINT lShldr
				{
					OFFSET 3.198488 0.000000 0.000000 
					CHANNELS 3 Zrotation Yrotation Xrotation
					JOINT lForeArm
					{
						OFFSET 10.139888 0.000000 0.000000 
						CHANNELS 3 Yrotation Zrotation Xrotation
						JOINT lHand
						{
							OFFSET 8.370511 0.000000 0.000000 
							CHANNELS 3 Zrotation Yrotation Xrotation
							End Site
							{
								OFFSET 4.083176 0.000000 0.000000 
							}
						}
					}
				}
			}
			JOINT rCollar
			{
				OFFSET -3.470700 6.669187 -0.816635 
				CHANNELS 3 Yrotation Zrotation Xrotation
				JOINT rShldr
				{
					OFFSET -3.198488 0.000000 0.000000 
					CHANNELS 3 Zrotation Yrotation Xrotation
					JOINT rForeArm
					{
						OFFSET -10.139888 0.000000 0.000000 
						CHANNELS 3 Yrotation Zrotation Xrotation
						JOINT rHand
						{
							OFFSET -8.370511 0.000000 0.000000 
							CHANNELS 3 Zrotation Yrotation Xrotation
							End Site
							{
								OFFSET -4.083176 0.000000 0.000000 
							}
						}
					}
				}
			}
		}
	}
	JOINT lThigh
	{
		OFFSET 5.308129 -1.633274 1.361059 
		CHANNELS 3 Xrotation Zrotation Yrotation
		JOINT lShin
		{
			OFFSET -2.041588 -20.007561 0.000000 
			CHANNELS 3 Xrotation Zrotation Yrotation
			JOINT lFoot
			{
				OFFSET 0.000000 -19.190928 -1.224953 
				CHANNELS 3 Xrotation Yrotation Zrotation
				End Site
				{
					OFFSET 0.000000 -2.449906 4.627600 
				}
			}
		}
	}
	JOINT rThigh
	{
		OFFSET -5.308129 -1.633274 1.361059 
		CHANNELS 3 Xrotation Zrotation Yrotation
		JOINT rShin
		{
			OFFSET 2.041588 -20.007561 0.000000 
			CHANNELS 3 Xrotation Zrotation Yrotation
			JOINT rFoot
			{
				OFFSET 0.000000 -19.190928 -1.224953 
				CHANNELS 3 Xrotation Yrotation Zrotation
				End Site
				{
					OFFSET 0.000000 -2.449906 4.627600 
				}
			}
		}
	}
}
MOTION
Frames: 6
Frame Time: 0.033333
18.079233 44.108654 79.543709 0.791244 -1.376822 49.892868 -25.449215 0.000000 0.000000 19.941294 4.198377 -27.111378 25.445179 24.953890 -7.190789 -10.898574 -13.932564 -3.828598 11.827751 30.000000 -12.358466 -84.215752 -119.337608 7.238216 -57.107780 15.046133 -1.596475 7.363292 -17.841846 -1.194885 1.931645 -10.167727 5.476629 -72.568291 48.125462 -107.387596 40.184612 -23.596966 -38.458351 -13.471121 44.511204 -5.064883 5.653419 22.685591 5.703485 39.155613 -2.462605 19.840210 -3.714120 1.523710 -22.005112 -36.087212 -14.265682 3.927198 38.824631 -4.246896 13.041454 -2.887997 -1.021879 13.719597 
19.027861 44.525261 79.871208 2.823126 -1.414298 43.221062 -25.449215 0.000000 0.000000 16.793972 5.779809 -27.115356 34.966331 20.615616 -3.646869 -15.145802 -13.625036 -1.588498 15.875369 30.000000 -16.965050 -88.024391 -120.858299 1.621417 -64.806190 10.117952 3.373475 2.794137 -16.619825 -0.278626 -1.906204 -11.046752 1.845678 -72.691330 48.361179 -118.747879 50.726048 -22.141743 -21.420525 -15.460125 40.031605 -5.274992 8.481596 19.914762 9.018553 37.415424 -2.854810 20.045795 1.188610 0.463475 -21.786850 -37.301983 -12.616438 6.613489 37.142784 -4.095926 14.351955 -2.903072 -1.002099 13.517444 
19.851057 44.844631 80.383423 4.707181 -0.457436 37.931007 -25.449215 0.000000 0.000000 14.579778 7.267500 -26.967844 41.896790 14.089043 -1.474640 -19.607811 -10.970780 -0.022990 18.820555 30.000000 -20.621284 -90.463776 -121.916321 -4.066298 -71.329674 5.059247 5.699257 0.121090 -17.003107 0.214875 -5.712135 -14.061720 -1.724405 -72.627502 48.999107 -134.968338 60.628815 -18.237005 -10.829226 -16.996475 35.636215 -5.176228 10.346139 16.536879 10.143919 35.787201 -2.084512 19.563179 7.234137 -0.799088 -21.340694 -38.040943 -11.991323 8.367509 36.567978 -4.623500 15.984977 -3.943870 -1.187766 13.774130 
20.486217 44.901180 80.924522 5.645447 1.030136 33.432060 -25.449215 0.000000 0.000000 13.920971 8.571124 -26.633146 46.972385 9.897645 -0.204357 -23.955320 -9.376578 1.364252 21.449104 30.000000 -23.772911 -91.177528 -121.409645 -9.638140 -75.975243 1.694162 5.086142 -1.313922 -18.261627 0.514422 -6.807013 -15.574369 -3.559601 -73.711380 48.273083 -144.020523 65.497383 -14.192934 -0.942846 -19.087574 33.346451 -5.479903 11.657668 13.484236 9.344415 35.071186 -0.169447 16.628246 12.930073 -1.977863 -21.856163 -39.226749 -11.464536 10.365397 38.165482 -4.641279 17.306049 -5.233979 -1.379137 13.950497 
20.933825 44.650566 81.425339 6.488301 1.989141 29.796694 -25.449215 0.000000 0.000000 12.871554 9.759593 -25.617683 49.416279 9.000621 1.318383 -27.714390 -11.204834 4.132190 21.324812 30.000000 -23.639187 -90.175644 -120.405106 -15.100527 -77.579224 0.650577 4.080620 -2.749578 -19.098358 0.826168 -6.049060 -17.754984 -2.747701 -74.403740 47.326664 -146.110703 65.463593 -13.384076 4.062311 -20.860838 32.479202 -5.875950 11.590220 11.581017 6.364596 35.827816 0.394919 12.858521 17.054609 -2.914143 -22.554701 -42.380974 -11.044530 11.328846 42.311028 -3.872540 17.876055 -6.893555 -1.530422 13.716637 
21.333136 43.928429 81.800034 6.689794 3.142563 26.579863 -25.449215 0.000000 0.000000 13.426701 10.540209 -25.113232 47.216717 8.776517 1.317612 -30.003771 -11.835759 4.896168 19.732258 30.000000 -21.563473 -88.928261 -120.195671 -13.431635 -70.731087 4.211869 1.940159 -1.540377 -21.395712 0.646316 -5.252705 -18.017569 -1.364071 -75.527000 46.657585 -137.066330 56.749023 -18.230721 -3.928239 -24.148302 33.789051 -7.162852 12.042846 10.288272 3.708796 37.923553 -0.002086 8.290567 18.055338 -3.260842 -23.517784 -46.159657 -11.239870 11.417237 48.288666 -3.102249 19.025337 -10.139703 -1.895589 13.227427 
